# xmcd
#
# Track frame offsets:
#	182
#	10707
#	21460
#	32077
#	42035
#	55552
#	68370
#	82945
#	94182
#	106257
#	119307
#	131745
#	145915
#	157470
#	171030
#	184382
#	196157
#	209782
#	223932
#	236682
#	251402
#	265332
#
# Disc length: 3732 seconds
#
# Revision: 0
# Processed by: cddbd v1.4PL0 Copyright (c) Steve Scherf et al.
# Submitted via: dBpowerAMP V4.0
#
DISCID=3c0e9216
DTITLE=Arthur Crupdup - The father of Rock n Roll
DYEAR=1900
DGENRE=Early *rock n Roll
TTITLE0=I'm in the Mood
TTITLE1=My Mama Don't Alllow Me
TTITLE2=Look On Yonder Wall
TTITLE3=She's Got no Hair
TTITLE4=Never no More
TTITLE5=Too Much Competition
TTITLE6=I'm Gonna Dig Myself a Hole
TTITLE7=My Baby Left Me
TTITLE8=Shout Sister Shout
TTITLE9=That's Allright
TTITLE10=So Glad You're Mine
TTITLE11=Ethel Mae
TTITLE12=Greyhound Bus
TTITLE13=She's Gone
TTITLE14=Rock Me Mama
TTITLE15=Mean Aof Frisco Blues
TTITLE16=If I Get Lucky
TTITLE17=Cool Disposition
TTITLE18=Give Me a 32 20
TTITLE19=Black Pony Blues
TTITLE20=Dirt Road Blues
TTITLE21=Death Valley Blues
EXTD=
EXTT0=
EXTT1=
EXTT2=
EXTT3=
EXTT4=
EXTT5=
EXTT6=
EXTT7=
EXTT8=
EXTT9=
EXTT10=
EXTT11=
EXTT12=
EXTT13=
EXTT14=
EXTT15=
EXTT16=
EXTT17=
EXTT18=
EXTT19=
EXTT20=
EXTT21=
PLAYORDER=
